<svg xmlns="http://www.w3.org/2000/svg" width="800" height="800" viewBox="0 0 800 800"><title>Kitchen Tactics</title><style>.fx,.crack,.cooked{opacity:0}</style><g><rect x="0" y="0" width="56" height="800" fill="#8a6a45"/><rect x="56" y="0" width="2" height="800" fill="#63492a"/><rect x="58" y="0" width="56" height="800" fill="#7d5f3d"/><rect x="114" y="0" width="2" height="800" fill="#63492a"/><rect x="116" y="0" width="56" height="800" fill="#8a6a45"/><rect x="172" y="0" width="2" height="800" fill="#63492a"/><rect x="174" y="0" width="56" height="800" fill="#7d5f3d"/><rect x="230" y="0" width="2" height="800" fill="#63492a"/><rect x="232" y="0" width="56" height="800" fill="#8a6a45"/><rect x="288" y="0" width="2" height="800" fill="#63492a"/><rect x="290" y="0" width="56" height="800" fill="#7d5f3d"/><rect x="346" y="0" width="2" height="800" fill="#63492a"/><rect x="348" y="0" width="56" height="800" fill="#8a6a45"/><rect x="404" y="0" width="2" height="800" fill="#63492a"/><rect x="406" y="0" width="56" height="800" fill="#7d5f3d"/><rect x="462" y="0" width="2" height="800" fill="#63492a"/><rect x="464" y="0" width="56" height="800" fill="#8a6a45"/><rect x="520" y="0" width="2" height="800" fill="#63492a"/><rect x="522" y="0" width="56" height="800" fill="#7d5f3d"/><rect x="578" y="0" width="2" height="800" fill="#63492a"/><rect x="580" y="0" width="56" height="800" fill="#8a6a45"/><rect x="636" y="0" width="2" height="800" fill="#63492a"/><rect x="638" y="0" width="56" height="800" fill="#7d5f3d"/><rect x="694" y="0" width="2" height="800" fill="#63492a"/><rect x="696" y="0" width="56" height="800" fill="#8a6a45"/><rect x="752" y="0" width="2" height="800" fill="#63492a"/><rect x="754" y="0" width="56" height="800" fill="#7d5f3d"/><rect x="810" y="0" width="2" height="800" fill="#63492a"/><rect x="812" y="0" width="56" height="800" fill="#8a6a45"/><rect x="868" y="0" width="2" height="800" fill="#63492a"/></g><rect width="800" height="800" fill="#2a2114" opacity=".3"/><rect x="0" y="600" width="800" height="200" fill="#2a2114" opacity=".42"/><rect x="0" y="600" width="800" height="8" fill="#8a6a45"/><g><path d="M0 0h100v74a50 50 0 0 1-100 0z" fill="#c8402f"/><path d="M100 0h100v74a50 50 0 0 1-100 0z" fill="#fdf6e6"/><path d="M200 0h100v74a50 50 0 0 1-100 0z" fill="#c8402f"/><path d="M300 0h100v74a50 50 0 0 1-100 0z" fill="#fdf6e6"/><path d="M400 0h100v74a50 50 0 0 1-100 0z" fill="#c8402f"/><path d="M500 0h100v74a50 50 0 0 1-100 0z" fill="#fdf6e6"/><path d="M600 0h100v74a50 50 0 0 1-100 0z" fill="#c8402f"/><path d="M700 0h100v74a50 50 0 0 1-100 0z" fill="#fdf6e6"/></g><rect y="124" width="800" height="4" fill="#8f2a1d"/><svg x="45" y="300" width="400" height="366" viewBox="-26 -22 212 194" preserveAspectRatio="xMidYMid meet">

  <ellipse class="shadow" cx="52" cy="137" rx="27" ry="5.8" fill="#000" opacity=".35"/>

  <g class="armB" style="transform-origin:30px 92px">
    <path d="M30 92 L16 96" stroke="#1A1220" stroke-width="12" stroke-linecap="round"/>
    <path d="M30 92 L16 96" stroke="#4A2A6B" stroke-width="8" stroke-linecap="round"/>
    <path d="M25 99 Q22 94 25 90 M20 100 Q17 95 20 91" stroke="#4E7A32" stroke-width="2.6"
          fill="none" stroke-linecap="round"/>
    <circle cx="13" cy="98" r="10" fill="#4A2A6B" stroke="#1A1220" stroke-width="3"/>
    <path d="M6 104 Q13 110 20 102 Q16 107 10 107 Z" fill="#33184D"/>
  </g>

  <g class="legB" style="transform-origin:44px 116px">
    <path d="M44 106 L41 126" stroke="#1A1220" stroke-width="12" stroke-linecap="round"/>
    <path d="M44 106 L41 126" stroke="#33184D" stroke-width="8" stroke-linecap="round"/>
    <path d="M34 126 Q29 131 32 136 L46 136 Q47 130 43 125 Z"
          fill="#4E7A32" stroke="#1A1220" stroke-width="2.8" stroke-linejoin="round"/>
  </g>
  <g class="legF" style="transform-origin:62px 116px">
    <path d="M62 106 L65 126" stroke="#1A1220" stroke-width="12" stroke-linecap="round"/>
    <path d="M62 106 L65 126" stroke="#4A2A6B" stroke-width="8" stroke-linecap="round"/>
    <path d="M62 125 Q57 130 60 136 L75 136 Q77 131 72 126 Z"
          fill="#5E8F3A" stroke="#1A1220" stroke-width="2.8" stroke-linejoin="round"/>
  </g>

  <g class="body" style="transform-origin:52px 120px">
    <path d="M52 40 C74 40 84 62 84 84 C84 106 70 116 52 116 C34 116 20 106 20 84
             C20 62 30 40 52 40 Z"
          fill="#4A2A6B" stroke="#1A1220" stroke-width="4" stroke-linejoin="round"/>
    <path d="M68 52 C80 66 82 96 66 110 C78 104 84 94 84 84 C84 68 78 56 68 52 Z"
          fill="#33184D"/>
    <path d="M34 58 C28 70 27 84 30 96" stroke="#8A63B8" stroke-width="3.2" fill="none"
          stroke-linecap="round" opacity=".9"/>
    <path d="M40 52 Q46 47 54 47" stroke="#C9A6E8" stroke-width="3.4" fill="none"
          stroke-linecap="round" opacity=".85"/>
    <path d="M31 64 Q27 78 30 91" stroke="#E2C8F5" stroke-width="1.7" fill="none"
          stroke-linecap="round" opacity=".7"/>

    <path d="M52 30 L52 42" stroke="#1A1220" stroke-width="5" stroke-linecap="round"/>
    <path d="M52 34 L52 24" stroke="#4E7A32" stroke-width="6" stroke-linecap="round"/>
    <path d="M52 44 C40 44 30 50 26 58 C34 62 44 62 52 58 Z"
          fill="#4E7A32" stroke="#1A1220" stroke-width="3" stroke-linejoin="round"/>
    <path d="M52 44 C64 44 74 50 78 58 C70 62 60 62 52 58 Z"
          fill="#5E8F3A" stroke="#1A1220" stroke-width="3" stroke-linejoin="round"/>
    <path d="M34 54 L44 57 M70 54 L60 57" stroke="#2E4A1E" stroke-width="2.2"
          stroke-linecap="round"/>
    <!-- Leaf armour, vine belt and a stitched field patch are the reference's
         secondary read; they make this a bruiser, not a bare purple mascot. -->
    <path d="M24 52 Q30 40 43 44 L52 52 L61 44 Q74 40 80 52 Q68 56 61 64
             Q52 58 43 64 Q36 56 24 52 Z" fill="#3E6B2C" stroke="#1A1220"
          stroke-width="2.8" stroke-linejoin="round"/>
    <path d="M30 51 Q38 47 45 53 M74 51 Q66 47 59 53" stroke="#78A54C"
          stroke-width="2" fill="none" stroke-linecap="round"/>
    <path d="M23 100 Q52 107 81 99" fill="none" stroke="#A57A3E" stroke-width="6"
          stroke-linecap="round"/>
    <path d="M27 99 Q52 104 77 98" fill="none" stroke="#E0C083" stroke-width="1.8"
          stroke-dasharray="3 3"/>
    <path d="M30 104 L45 106 L42 116 L28 112 Z" fill="#406C2B" stroke="#1A1220"
          stroke-width="2.4" stroke-linejoin="round"/>
    <path d="M74 103 L60 106 L63 116 L77 112 Z" fill="#527F34" stroke="#1A1220"
          stroke-width="2.4" stroke-linejoin="round"/>
    <path d="M33 91 L44 92 L43 102 L32 100 Z" fill="#C79554" stroke="#1A1220"
          stroke-width="2" stroke-linejoin="round"/>
    <path d="M34 94 L41 99 M41 94 L34 99" stroke="#F0D5A4" stroke-width="1.4"/>

    <path d="M32 74 L44 76 M60 76 L72 74" stroke="#1A1220" stroke-width="3.4"
          stroke-linecap="round"/>
    <ellipse cx="39" cy="86" rx="6.6" ry="7.6" fill="#fff" stroke="#1A1220" stroke-width="2.3"/>
    <ellipse cx="65" cy="86" rx="6.6" ry="7.6" fill="#fff" stroke="#1A1220" stroke-width="2.3"/>
    <ellipse cx="40.4" cy="87" rx="3.6" ry="4.8" fill="#1A1220"/>
    <ellipse cx="66.4" cy="87" rx="3.6" ry="4.8" fill="#1A1220"/>
    <circle cx="38" cy="83.4" r="1.6" fill="#fff"/>
    <circle cx="64" cy="83.4" r="1.6" fill="#fff"/>
    <path d="M44 99 Q52 104 60 99" stroke="#1A1220" stroke-width="3"
          fill="none" stroke-linecap="round"/>
    <g fill="#B995D6" opacity=".65">
      <ellipse cx="27" cy="77" rx="1.4" ry="2.2"/><ellipse cx="75" cy="71" rx="1.2" ry="2"/>
      <ellipse cx="69" cy="96" rx="1.3" ry="2.1"/>
    </g>

    <g data-expression="cute">
      <path d="M32 76 Q38 71 44 76 M60 76 Q66 71 72 76" fill="none" stroke="#4A2A6B" stroke-width="7" stroke-linecap="round"/>
      <path d="M32 76 Q38 71 44 76 M60 76 Q66 71 72 76" fill="none" stroke="#1A1220" stroke-width="2.8" stroke-linecap="round"/>
      <ellipse cx="31" cy="99" rx="3.2" ry="1.9" fill="#D986B8" opacity=".72"/><ellipse cx="73" cy="99" rx="3.2" ry="1.9" fill="#D986B8" opacity=".72"/>
      <path d="M44 98 Q52 106 60 98 Q59 109 52 110 Q45 109 44 98 Z" fill="#30152F" stroke="#1A1220" stroke-width="2.3"/>
      <path d="M49 104 Q52 106 55 104" fill="none" stroke="#E995BC" stroke-width="1.8" stroke-linecap="round"/>
    </g>

    <path class="crack" d="M36 56 L48 72 L38 86 L50 98 L40 110"
          stroke="#0A0A06" stroke-width="2.8" fill="none" stroke-linejoin="round"/>
  </g>

  <g class="armF" style="transform-origin:74px 92px">
    <path d="M74 92 L98 89" stroke="#1A1220" stroke-width="16" stroke-linecap="round"/>
    <path d="M74 92 L98 89" stroke="#4A2A6B" stroke-width="12" stroke-linecap="round"/>
    <path d="M85 91 Q90 86 95 90" stroke="#4E7A32" stroke-width="3.4" fill="none"
          stroke-linecap="round"/>
    <path d="M87 90 Q92 94 97 89" stroke="#5E8F3A" stroke-width="3" fill="none"
          stroke-linecap="round"/>
    <circle cx="108" cy="87" r="12" fill="#4A2A6B" stroke="#1A1220" stroke-width="3.4"/>
    <path d="M97 81 Q102 87 97 93" fill="none" stroke="#1A1220" stroke-width="2.2" stroke-linecap="round"/>
    <path d="M99 94 Q108 102 117 92 Q112 99 105 99 Z" fill="#33184D"/>
    <path d="M100 81 Q105 77 111 78" stroke="#C9A6E8" stroke-width="2.6" fill="none"
          stroke-linecap="round" opacity=".85"/>
    <path d="M103 77 L103 96 M110 76 L110 97" stroke="#1A1220" stroke-width="1.8" opacity=".6"/>
  </g>

  <g class="fx" style="transform-origin:120px 87px">
    <path d="M119 73 L134 64 M123 87 L142 87 M119 101 L134 110"
          stroke="#8A63B8" stroke-width="5.5" stroke-linecap="round" opacity=".9"/>
    <path d="M119 73 L129 67 M123 87 L136 87 M119 101 L129 107"
          stroke="#E6D6F6" stroke-width="2.2" stroke-linecap="round"/>
    <path d="M131 76 L135 73 L134 78 Z" fill="#4A2A6B" stroke="#1A1220" stroke-width="1.2"/>
    <path d="M133 97 L138 96 L135 100 Z" fill="#4A2A6B" stroke="#1A1220" stroke-width="1.2"/>
  </g>
</svg><svg x="270" y="210" width="520" height="476" viewBox="-26 -22 212 194" preserveAspectRatio="xMidYMid meet">

  <ellipse class="shadow" cx="52" cy="137" rx="34" ry="6.8" fill="#000" opacity=".35"/>

  <!-- Arka kol. Omuzluk pivotun hemen üstünde: dönerken eklemi hep örter. -->
  <g class="armB" style="transform-origin:20.5px 84px">
    <path d="M20 79 L18 103" stroke="#2A2114" stroke-width="17" stroke-linecap="round"/>
    <path d="M20 79 L18 103" stroke="#3C7C33" stroke-width="12" stroke-linecap="round"/>
    <circle cx="17" cy="107" r="7.5" fill="#3C7C33" stroke="#2A2114" stroke-width="3"/>
    <path d="M12.6 105.5 L21.4 107.5" stroke="#2F6B27" stroke-width="1.9" stroke-linecap="round"/>
    <path d="M8 75 A12.5 12.5 0 0 1 33 75 Q20.5 80 8 75 Z"
          fill="#4A8C3C" stroke="#2A2114" stroke-width="3.4" stroke-linejoin="round"/>
    <path d="M11.4 74.2 A9.1 9.1 0 0 1 29.6 74.2 Q20.5 78.3 11.4 74.2 Z" fill="#F3E6C6"/>
    <path d="M14.2 73.5 A6.3 6.3 0 0 1 26.8 73.5 Q20.5 76.8 14.2 73.5 Z" fill="#E24B3B"/>
    <ellipse cx="17.5" cy="69.8" rx="1.3" ry="1.8" fill="#2A2114"/>
    <ellipse cx="23.5" cy="69.8" rx="1.3" ry="1.8" fill="#2A2114"/>
    <ellipse cx="20.5" cy="72.6" rx="1.3" ry="1.8" fill="#2A2114"/>
  </g>

  <!-- Bacaklar: geniş duruş, uyluk plakası dilim, ayak koyu tırnak. -->
  <g class="legB">
    <path d="M44 110 L36 128" stroke="#2A2114" stroke-width="19" stroke-linecap="round"/>
    <path d="M44 110 L36 128" stroke="#3C7C33" stroke-width="14" stroke-linecap="round"/>
    <path d="M30 126 Q24 131 26 136 L42 136 Q45 130 40 126 Z"
          fill="#4C4527" stroke="#2A2114" stroke-width="3" stroke-linejoin="round"/>
    <path d="M32 136 L32.5 130" stroke="#2A2114" stroke-width="1.8" stroke-linecap="round"/>
    <path d="M37 136 L37 129.5" stroke="#2A2114" stroke-width="1.8" stroke-linecap="round"/>
    <path d="M31 111 L45 113 Q43 124 37 127 Q31 122 31 111 Z"
          fill="#4A8C3C" stroke="#2A2114" stroke-width="2.8" stroke-linejoin="round"/>
    <path d="M34.5 114.5 L42 115.5 Q41 122 37 124 Q34.5 120.5 34.5 114.5 Z" fill="#F3E6C6"/>
    <path d="M36 116.2 L40.5 116.8 Q40 120.8 37.5 122 Q36 119.8 36 116.2 Z" fill="#E24B3B"/>
    <ellipse cx="38" cy="119" rx="1.1" ry="1.6" fill="#2A2114"/>
  </g>
  <g class="legF">
    <path d="M62 110 L70 128" stroke="#2A2114" stroke-width="19" stroke-linecap="round"/>
    <path d="M62 110 L70 128" stroke="#4A8C3C" stroke-width="14" stroke-linecap="round"/>
    <path d="M66 126 Q61 130 64 136 L80 136 Q82 131 76 126 Z"
          fill="#56502D" stroke="#2A2114" stroke-width="3" stroke-linejoin="round"/>
    <path d="M69 136 L69 130" stroke="#2A2114" stroke-width="1.8" stroke-linecap="round"/>
    <path d="M74 136 L74.5 129.5" stroke="#2A2114" stroke-width="1.8" stroke-linecap="round"/>
    <path d="M61 113 L75 111 Q75 122 69 127 Q63 124 61 113 Z"
          fill="#4A8C3C" stroke="#2A2114" stroke-width="2.8" stroke-linejoin="round"/>
    <path d="M64 115.5 L71.5 114.5 Q71.5 120.5 68.5 124 Q65 121 64 115.5 Z" fill="#F3E6C6"/>
    <path d="M65.5 117 L70 116.3 Q70 120 68.5 121.6 Q66 119.6 65.5 117 Z" fill="#E24B3B"/>
    <ellipse cx="68" cy="119" rx="1.1" ry="1.6" fill="#2A2114"/>
  </g>

  <g class="body">
    <!-- Sap önce: gövde dairesi dibini örtsün, arkadan çıkıyormuş gibi dursun. -->
    <path d="M53 43 C52 30 46 20 40 22 C34 24 35 32 42 32"
          stroke="#2A2114" stroke-width="11" fill="none" stroke-linecap="round"/>
    <path d="M53 43 C52 30 46 20 40 22 C34 24 35 32 42 32"
          stroke="#58A03C" stroke-width="7" fill="none" stroke-linecap="round"/>

    <circle cx="52" cy="78" r="37" fill="#4A8C3C" stroke="#2A2114" stroke-width="4.4"/>

    <path d="M30 60 C24 72 24 88 30 100" stroke="#2F6B27" stroke-width="6.5" fill="none"
          opacity=".9" stroke-linecap="round"/>
    <path d="M41 48 C34 66 34 92 41 110" stroke="#2F6B27" stroke-width="6.5" fill="none"
          opacity=".9" stroke-linecap="round"/>
    <path d="M52.5 45 C46 62 46 96 52.5 112" stroke="#2F6B27" stroke-width="6.5" fill="none"
          opacity=".9" stroke-linecap="round"/>
    <path d="M64 48 C71 66 71 92 64 110" stroke="#2F6B27" stroke-width="6.5" fill="none"
          opacity=".9" stroke-linecap="round"/>
    <path d="M75 60 C81 72 81 88 75 100" stroke="#2F6B27" stroke-width="6.5" fill="none"
          opacity=".9" stroke-linecap="round"/>
    <path d="M28 64 Q36 50 52 47" stroke="#8FCF72" stroke-width="6" fill="none"
          opacity=".4" stroke-linecap="round"/>

    <!-- Yara izi: kabuk yarılmış, altından et görünüyor. Kaş kuyruğunu örter. -->
    <path d="M66 44 L60 54 L66 57 L62 66" stroke="#F3E6C6" stroke-width="6.5" fill="none"
          stroke-linejoin="round" stroke-linecap="round"/>
    <path d="M66 44 L60 54 L66 57 L62 66" stroke="#E24B3B" stroke-width="3.2" fill="none"
          stroke-linejoin="round" stroke-linecap="round"/>
    <path d="M69 85 L75 88 L69 91" stroke="#F3E6C6" stroke-width="5" fill="none"
          stroke-linejoin="round" stroke-linecap="round"/>
    <path d="M69 85 L75 88 L69 91" stroke="#E24B3B" stroke-width="2.4" fill="none"
          stroke-linejoin="round" stroke-linecap="round"/>

    <ellipse cx="41" cy="82" rx="8.5" ry="9.5" fill="#fff" stroke="#2A2114" stroke-width="2.6"/>
    <ellipse cx="63" cy="82" rx="8.5" ry="9.5" fill="#fff" stroke="#2A2114" stroke-width="2.6"/>
    <ellipse cx="43" cy="83" rx="5" ry="6.5" fill="#2A2114"/>
    <ellipse cx="65" cy="83" rx="5" ry="6.5" fill="#2A2114"/>
    <circle cx="40.5" cy="79.5" r="2.2" fill="#fff"/>
    <circle cx="62.5" cy="79.5" r="2.2" fill="#fff"/>

    <path d="M33 63 L48 71.5 L46 76 L32 69 Z" fill="#2A2114" stroke-linejoin="round"/>
    <path d="M71 63 L56 71.5 L58 76 L72 69 Z" fill="#2A2114" stroke-linejoin="round"/>
    <path d="M45 99 Q52 93 59 99" stroke="#2A2114" stroke-width="3.6" fill="none"
          stroke-linecap="round"/>

    <!-- Kasık plakası, sonra üstüne halat kemer. -->
    <path d="M40 104 L64 104 Q63 121 52 128 Q41 121 40 104 Z"
          fill="#4A8C3C" stroke="#2A2114" stroke-width="3.4" stroke-linejoin="round"/>
    <path d="M44 108 L60 108 Q59.5 119 52 123.5 Q44.5 119 44 108 Z" fill="#F3E6C6"/>
    <path d="M46.5 110.5 L57.5 110.5 Q57 118 52 121 Q47 118 46.5 110.5 Z" fill="#E24B3B"/>
    <ellipse cx="49.5" cy="114" rx="1.5" ry="2.1" fill="#2A2114"/>
    <ellipse cx="54.5" cy="114" rx="1.5" ry="2.1" fill="#2A2114"/>
    <ellipse cx="52" cy="117.5" rx="1.5" ry="2.1" fill="#2A2114"/>

    <path d="M29 103 Q52 110 75 103" stroke="#6E5436" stroke-width="7" fill="none"
          stroke-linecap="round"/>
    <path d="M34 105.5 L36 101.5" stroke="#4A3826" stroke-width="2.2" stroke-linecap="round"/>
    <path d="M42.5 107.5 L44.5 103.5" stroke="#4A3826" stroke-width="2.2" stroke-linecap="round"/>
    <path d="M51 108.5 L53 104.5" stroke="#4A3826" stroke-width="2.2" stroke-linecap="round"/>
    <path d="M59.5 108 L61.5 104" stroke="#4A3826" stroke-width="2.2" stroke-linecap="round"/>
    <path d="M68 106 L70 102" stroke="#4A3826" stroke-width="2.2" stroke-linecap="round"/>

    <!-- Waxy rind bloom, speckles and a cool lower bounce give the large fruit volume. -->
    <path d="M27 57 Q34 46 47 44" fill="none" stroke="#B9E69A" stroke-width="2.2"
          stroke-linecap="round" opacity=".72"/>
    <path d="M34 105 Q52 115 70 104" fill="none" stroke="#244F23" stroke-width="2.2"
          stroke-linecap="round" opacity=".65"/>
    <g fill="#B4D98B" opacity=".7"><circle cx="32" cy="69" r="1.3"/><circle cx="43" cy="52" r="1.1"/>
      <circle cx="72" cy="62" r="1.2"/><circle cx="75" cy="91" r="1"/></g>

    <g data-expression="cute">
      <path d="M32 69 Q40 63 48 69 M56 69 Q64 63 72 69" fill="none" stroke="#4A8C3C" stroke-width="9" stroke-linecap="round"/>
      <path d="M33 69 Q40 63 48 69 M56 69 Q64 63 71 69" fill="none" stroke="#2A2114" stroke-width="3.1" stroke-linecap="round"/>
      <ellipse cx="31" cy="97" rx="3.6" ry="2.1" fill="#E86F60" opacity=".62"/><ellipse cx="73" cy="97" rx="3.6" ry="2.1" fill="#E86F60" opacity=".62"/>
      <path d="M44 97 Q52 106 60 97 Q59 109 52 110 Q45 109 44 97 Z" fill="#3A1A18" stroke="#2A2114" stroke-width="2.5"/>
      <path d="M49 104 Q52 107 55 104" fill="none" stroke="#F17B6B" stroke-width="1.9" stroke-linecap="round"/>
    </g>

    <path class="crack" d="M34 54 L46 68 L38 76 L52 90 L44 100 L58 112"
          stroke="#1A1410" stroke-width="3.4" fill="none" stroke-linejoin="round"/>
    <path class="crack" d="M52 90 L68 82 L74 94"
          stroke="#1A1410" stroke-width="2.8" fill="none" stroke-linejoin="round"/>
  </g>

  <!-- Ön kol + balta, tek dönüş. Sırayla: omuzluk, kol, sap, sargılar, ağız,
       bileme, yumruk. Sap ağzın altından geçer, yumruk sapın üstünde durur. -->
  <g class="armF" style="transform-origin:91px 84px">
    <path d="M91 79 L88 107" stroke="#2A2114" stroke-width="19" stroke-linecap="round"/>
    <path d="M91 79 L88 107" stroke="#57A544" stroke-width="14" stroke-linecap="round"/>
    <path d="M77 75 A14 14 0 0 1 105 75 Q91 80.5 77 75 Z"
          fill="#4A8C3C" stroke="#2A2114" stroke-width="3.4" stroke-linejoin="round"/>
    <path d="M80.8 74.2 A10.2 10.2 0 0 1 101.2 74.2 Q91 78.6 80.8 74.2 Z" fill="#F3E6C6"/>
    <path d="M83.9 73.4 A7.1 7.1 0 0 1 98.1 73.4 Q91 76.9 83.9 73.4 Z" fill="#E24B3B"/>
    <ellipse cx="87.8" cy="69.4" rx="1.4" ry="1.9" fill="#2A2114"/>
    <ellipse cx="94.2" cy="69.4" rx="1.4" ry="1.9" fill="#2A2114"/>
    <ellipse cx="91" cy="72.4" rx="1.4" ry="1.9" fill="#2A2114"/>

    <path d="M84 122 L109 14" stroke="#2A2114" stroke-width="9.5" stroke-linecap="round"/>
    <path d="M84 122 L109 14" stroke="#6E5436" stroke-width="7" stroke-linecap="round"/>
    <path d="M88 106 L94 80" stroke="#4A3826" stroke-width="1.6" stroke-linecap="round"/>
    <path d="M85 119 L87 111" stroke="#4A3826" stroke-width="8" stroke-linecap="round"/>

    <path d="M98.5 60 L103.5 38" stroke="#4A8C3C" stroke-width="7" stroke-linecap="round"/>
    <path d="M96 55 L104.5 52" stroke="#2F6B27" stroke-width="2" stroke-linecap="round"/>
    <path d="M98 46 L106.5 43" stroke="#2F6B27" stroke-width="2" stroke-linecap="round"/>
    <path d="M90.5 71 L100.5 73" stroke="#2A2114" stroke-width="8" stroke-linecap="round"/>
    <path d="M91 71.3 L100 72.7" stroke="#C8CCD6" stroke-width="4.6" stroke-linecap="round"/>

    <path d="M113 12 A36 36 0 0 1 100 69 Z"
          fill="#4A8C3C" stroke="#2A2114" stroke-width="4" stroke-linejoin="round"/>
    <path d="M111.7 18 A29.8 29.8 0 0 1 101.3 63 Z" fill="#F3E6C6"/>
    <path d="M110.4 24 A24 24 0 0 1 102.7 57 Z" fill="#E24B3B"/>
    <ellipse cx="111.1" cy="30.3" rx="1.5" ry="2.1" fill="#2A2114"/>
    <ellipse cx="109.9" cy="41.3" rx="1.5" ry="2.1" fill="#2A2114"/>
    <ellipse cx="106.1" cy="51.7" rx="1.5" ry="2.1" fill="#2A2114"/>

    <ellipse cx="104" cy="22" rx="5.5" ry="4.6" fill="#58A03C" stroke="#2A2114" stroke-width="2.6"/>
    <ellipse cx="108.5" cy="15" rx="4.2" ry="3.5" fill="#58A03C" stroke="#2A2114" stroke-width="2.4"/>

    <circle cx="87" cy="110" r="9" fill="#57A544" stroke="#2A2114" stroke-width="3.4"/>
    <path d="M82 107.5 L92 110" stroke="#2F6B27" stroke-width="2" stroke-linecap="round"/>
    <ellipse cx="91" cy="104.5" rx="4.2" ry="3.2" fill="#57A544" stroke="#2A2114" stroke-width="2.6"/>
  </g>

  <g class="fx" style="transform-origin:52px 78px">
    <path d="M100 22 A 66 66 0 0 1 100 142" fill="none" stroke="#4FBFA0"
          stroke-width="14" opacity=".28" stroke-linecap="round"/>
    <path d="M100 22 A 66 66 0 0 1 100 142" fill="none" stroke="#9BF0D4"
          stroke-width="4" stroke-linecap="round"/>
  </g>
</svg><text x="403" y="733" font-family='Georgia, "Iowan Old Style", "Times New Roman", serif' font-size="78" font-weight="600" text-anchor="middle" fill="#000" opacity=".45">Kitchen Tactics</text><text x="400" y="730" font-family='Georgia, "Iowan Old Style", "Times New Roman", serif' font-size="78" font-weight="600" text-anchor="middle" fill="#fdf6e6">Kitchen Tactics</text></svg>